<mxfile host="app.diagrams.net" modified="2024-02-01T14:45:08.624Z" agent="Mozilla/5.0 (Windows NT 10.0; Win64; x64) AppleWebKit/537.36 (KHTML, like Gecko) Chrome/121.0.0.0 Safari/537.36 Edg/121.0.0.0" version="23.1.0" etag="W0RIgPCMyRGlh0Ihxz_K" type="device">
  <diagram id="dT4_UAJD9KKSV2xhyDcy" name="Страница 1">
    <mxGraphModel dx="832" dy="481" grid="0" gridSize="10" guides="1" tooltips="1" connect="1" arrows="1" fold="1" page="0" pageScale="1" pageWidth="827" pageHeight="1169" math="0" shadow="0">
      <root>
        <mxCell id="0" />
        <mxCell id="1" parent="0" />
        <mxCell id="fX8kSdaLMVLi7RoWcLNR-1" value="Родительский &#xa;класс" style="swimlane;fontStyle=0;childLayout=stackLayout;horizontal=1;startSize=40;fillColor=none;horizontalStack=0;resizeParent=1;resizeParentMax=0;resizeLast=0;collapsible=1;marginBottom=0;" parent="1" vertex="1">
          <mxGeometry x="290" y="4" width="140" height="108" as="geometry" />
        </mxCell>
        <mxCell id="fX8kSdaLMVLi7RoWcLNR-5" value="Класс &#xa;Домашние &#xa;животные" style="swimlane;fontStyle=0;childLayout=stackLayout;horizontal=1;startSize=50;fillColor=none;horizontalStack=0;resizeParent=1;resizeParentMax=0;resizeLast=0;collapsible=1;marginBottom=0;" parent="1" vertex="1">
          <mxGeometry x="90" y="164" width="140" height="98" as="geometry" />
        </mxCell>
        <mxCell id="fX8kSdaLMVLi7RoWcLNR-9" value="Класс &#xa;Вьючные&#xa;животные" style="swimlane;fontStyle=0;childLayout=stackLayout;horizontal=1;startSize=50;fillColor=none;horizontalStack=0;resizeParent=1;resizeParentMax=0;resizeLast=0;collapsible=1;marginBottom=0;" parent="1" vertex="1">
          <mxGeometry x="510" y="163" width="140" height="99" as="geometry" />
        </mxCell>
        <mxCell id="fX8kSdaLMVLi7RoWcLNR-13" value="" style="endArrow=block;endSize=16;endFill=0;html=1;rounded=0;exitX=1;exitY=0.5;exitDx=0;exitDy=0;" parent="1" source="fX8kSdaLMVLi7RoWcLNR-5" edge="1">
          <mxGeometry width="160" relative="1" as="geometry">
            <mxPoint x="243" y="219" as="sourcePoint" />
            <mxPoint x="330" y="110" as="targetPoint" />
            <Array as="points">
              <mxPoint x="330" y="211" />
              <mxPoint x="330" y="160" />
            </Array>
          </mxGeometry>
        </mxCell>
        <mxCell id="fX8kSdaLMVLi7RoWcLNR-14" value="" style="endArrow=block;endSize=16;endFill=0;html=1;rounded=0;exitX=0;exitY=0.5;exitDx=0;exitDy=0;" parent="1" source="fX8kSdaLMVLi7RoWcLNR-9" edge="1">
          <mxGeometry x="-0.1054" y="3" width="160" relative="1" as="geometry">
            <mxPoint x="495" y="218" as="sourcePoint" />
            <mxPoint x="400" y="110" as="targetPoint" />
            <Array as="points">
              <mxPoint x="400" y="213" />
              <mxPoint x="400" y="160" />
            </Array>
            <mxPoint as="offset" />
          </mxGeometry>
        </mxCell>
        <mxCell id="fX8kSdaLMVLi7RoWcLNR-15" value="Класс&#xa;Собаки" style="swimlane;fontStyle=0;childLayout=stackLayout;horizontal=1;startSize=28;fillColor=none;horizontalStack=0;resizeParent=1;resizeParentMax=0;resizeLast=0;collapsible=1;marginBottom=0;" parent="1" vertex="1">
          <mxGeometry x="25" y="330" width="85" height="76" as="geometry" />
        </mxCell>
        <mxCell id="fX8kSdaLMVLi7RoWcLNR-19" value="Класс&#xa;Кошки" style="swimlane;fontStyle=0;childLayout=stackLayout;horizontal=1;startSize=26;fillColor=none;horizontalStack=0;resizeParent=1;resizeParentMax=0;resizeLast=0;collapsible=1;marginBottom=0;" parent="1" vertex="1">
          <mxGeometry x="120" y="330" width="88" height="76" as="geometry" />
        </mxCell>
        <mxCell id="fX8kSdaLMVLi7RoWcLNR-20" value="Класс&#xa;Хомяки" style="swimlane;fontStyle=0;childLayout=stackLayout;horizontal=1;startSize=26;fillColor=none;horizontalStack=0;resizeParent=1;resizeParentMax=0;resizeLast=0;collapsible=1;marginBottom=0;" parent="1" vertex="1">
          <mxGeometry x="220" y="330" width="85" height="77" as="geometry" />
        </mxCell>
        <mxCell id="fX8kSdaLMVLi7RoWcLNR-26" value="" style="endArrow=block;endSize=16;endFill=0;html=1;rounded=0;entryX=0.75;entryY=1;entryDx=0;entryDy=0;" parent="fX8kSdaLMVLi7RoWcLNR-20" target="fX8kSdaLMVLi7RoWcLNR-5" edge="1">
          <mxGeometry width="160" relative="1" as="geometry">
            <mxPoint x="40" as="sourcePoint" />
            <mxPoint x="200" as="targetPoint" />
          </mxGeometry>
        </mxCell>
        <mxCell id="fX8kSdaLMVLi7RoWcLNR-21" value="Класс&#xa;Верблюды" style="swimlane;fontStyle=0;childLayout=stackLayout;horizontal=1;startSize=26;fillColor=none;horizontalStack=0;resizeParent=1;resizeParentMax=0;resizeLast=0;collapsible=1;marginBottom=0;" parent="1" vertex="1">
          <mxGeometry x="528" y="330" width="92" height="77" as="geometry" />
        </mxCell>
        <mxCell id="fX8kSdaLMVLi7RoWcLNR-22" value="Класс&#xa;Ослы" style="swimlane;fontStyle=0;childLayout=stackLayout;horizontal=1;startSize=26;fillColor=none;horizontalStack=0;resizeParent=1;resizeParentMax=0;resizeLast=0;collapsible=1;marginBottom=0;" parent="1" vertex="1">
          <mxGeometry x="641" y="330" width="89" height="78" as="geometry" />
        </mxCell>
        <mxCell id="fX8kSdaLMVLi7RoWcLNR-23" value="Класс &#xa;Лошади" style="swimlane;fontStyle=0;childLayout=stackLayout;horizontal=1;startSize=30;fillColor=none;horizontalStack=0;resizeParent=1;resizeParentMax=0;resizeLast=0;collapsible=1;marginBottom=0;" parent="1" vertex="1">
          <mxGeometry x="402" y="330" width="92" height="77" as="geometry" />
        </mxCell>
        <mxCell id="fX8kSdaLMVLi7RoWcLNR-24" value="" style="endArrow=block;endSize=16;endFill=0;html=1;rounded=0;exitX=0.5;exitY=0;exitDx=0;exitDy=0;entryX=0.25;entryY=1;entryDx=0;entryDy=0;" parent="1" source="fX8kSdaLMVLi7RoWcLNR-15" target="fX8kSdaLMVLi7RoWcLNR-5" edge="1">
          <mxGeometry width="160" relative="1" as="geometry">
            <mxPoint x="330" y="360" as="sourcePoint" />
            <mxPoint x="490" y="360" as="targetPoint" />
          </mxGeometry>
        </mxCell>
        <mxCell id="fX8kSdaLMVLi7RoWcLNR-25" value="" style="endArrow=block;endSize=16;endFill=0;html=1;rounded=0;exitX=0.594;exitY=0.023;exitDx=0;exitDy=0;exitPerimeter=0;entryX=0.25;entryY=1;entryDx=0;entryDy=0;" parent="1" source="fX8kSdaLMVLi7RoWcLNR-23" target="fX8kSdaLMVLi7RoWcLNR-9" edge="1">
          <mxGeometry width="160" relative="1" as="geometry">
            <mxPoint x="330" y="360" as="sourcePoint" />
            <mxPoint x="490" y="360" as="targetPoint" />
          </mxGeometry>
        </mxCell>
        <mxCell id="fX8kSdaLMVLi7RoWcLNR-27" value="" style="endArrow=block;endSize=16;endFill=0;html=1;rounded=0;exitX=0.5;exitY=0;exitDx=0;exitDy=0;entryX=0.5;entryY=1;entryDx=0;entryDy=0;" parent="1" source="fX8kSdaLMVLi7RoWcLNR-19" target="fX8kSdaLMVLi7RoWcLNR-5" edge="1">
          <mxGeometry width="160" relative="1" as="geometry">
            <mxPoint x="330" y="360" as="sourcePoint" />
            <mxPoint x="490" y="360" as="targetPoint" />
          </mxGeometry>
        </mxCell>
        <mxCell id="fX8kSdaLMVLi7RoWcLNR-28" value="" style="endArrow=block;endSize=16;endFill=0;html=1;rounded=0;exitX=0.5;exitY=0;exitDx=0;exitDy=0;entryX=0.75;entryY=1;entryDx=0;entryDy=0;" parent="1" source="fX8kSdaLMVLi7RoWcLNR-22" target="fX8kSdaLMVLi7RoWcLNR-9" edge="1">
          <mxGeometry width="160" relative="1" as="geometry">
            <mxPoint x="330" y="360" as="sourcePoint" />
            <mxPoint x="490" y="360" as="targetPoint" />
          </mxGeometry>
        </mxCell>
        <mxCell id="fX8kSdaLMVLi7RoWcLNR-29" value="" style="endArrow=block;endSize=16;endFill=0;html=1;rounded=0;exitX=0.5;exitY=0;exitDx=0;exitDy=0;entryX=0.5;entryY=1;entryDx=0;entryDy=0;" parent="1" source="fX8kSdaLMVLi7RoWcLNR-21" target="fX8kSdaLMVLi7RoWcLNR-9" edge="1">
          <mxGeometry width="160" relative="1" as="geometry">
            <mxPoint x="330" y="360" as="sourcePoint" />
            <mxPoint x="490" y="360" as="targetPoint" />
          </mxGeometry>
        </mxCell>
      </root>
    </mxGraphModel>
  </diagram>
</mxfile>
